:SAMPLES-PER-SECOND 30
:FULLY-SPECIFIED
:DEGREES
312
root  -12.2105 34.5701 -17.8923 -170.718 -1.37767 179.539
RightUpLeg  -8.40482 -15.0586 -0.297477
RightLeg  7.40761 -2.28237 -0.14722
RightFoot  1.8108 0.0140339 0.0668813
RightToes  -22.4701 -0.0956523 -0.19638
Spine  -2.70834 -0.0410878 0.364557
Spine1  -5.51202 -0.0290138 1.275
HEad  -62.4281 -1.08125 4.7511
LeftShoulder1  -1.94126e-019 -3.10601e-018 -2.51263e-017
LeftArm  -10.7042 24.2421 -82.2539
LeftForeArm  31.7204 -16.9716 -2.74248
LeftHand  -0.359617 -1.15523 6.52191
RightShoulder  -4.96962e-017 0 -2.36833e-017
RightArm  -26.9327 -25.6465 76.8306
RightForeArm  43.9583 13.5305 1.50739
RightHand  -0.159219 -3.121 -7.5135
LeftUpLeg  -8.57371 -3.07206 1.17917
LeftLeg  8.42672 12.9928 1.06795
LeftFoot  3.00691 -0.0153173 0.805487
LeftToes  -17.0518 1.48347e-006 1.01831e-007
313
root  -12.0465 34.5972 -17.848 -170.822 -1.52866 179.604
RightUpLeg  -8.21242 -15.0309 0.0385138
RightLeg  7.11298 -2.44519 -0.145173
RightFoot  1.79779 0.0139473 0.0679418
RightToes  -21.9335 -0.0927702 -0.192183
Spine  -2.65388 0.0241719 0.349556
Spine1  -5.40441 0.135121 1.24998
HEad  -62.161 -1.10672 4.71878
LeftShoulder1  -1.94126e-019 -3.10601e-018 -2.51263e-017
LeftArm  -10.4889 24.1043 -82.0867
LeftForeArm  31.5687 -16.7314 -2.7005
LeftHand  -0.357624 -1.20062 6.44552
RightShoulder  -4.96962e-017 0 -2.36833e-017
RightArm  -23.6414 -24.9775 76.4513
RightForeArm  42.7208 14.2905 1.48921
RightHand  -0.14716 -2.76097 -5.98737
LeftUpLeg  -8.77361 -3.31507 1.53386
LeftLeg  8.82017 13.0612 1.16297
LeftFoot  3.11852 -0.0170468 0.841666
LeftToes  -17.4757 1.48347e-006 1.01831e-007
314
root  -11.8398 34.6544 -17.7797 -170.886 -1.47226 179.714
RightUpLeg  -7.73644 -14.8091 0.487699
RightLeg  6.02115 -2.56752 -0.103488
RightFoot  2.20339 0.0148335 0.0554356
RightToes  -21.436 -0.0895869 -0.188573
Spine  -2.60671 0.123239 0.274113
Spine1  -5.303 0.371779 1.13329
HEad  -62.0231 -1.03396 4.82453
LeftShoulder1  -1.94126e-019 -3.10601e-018 -2.51263e-017
LeftArm  -10.4591 23.8852 -81.861
LeftForeArm  31.6305 -16.0904 -2.60224
LeftHand  -0.36195 -0.982223 6.72704
RightShoulder  -4.96962e-017 0 -2.36833e-017
RightArm  -18.4639 -24.2111 75.8081
RightForeArm  40.0241 16.771 1.64052
RightHand  -0.131256 -2.7425 -5.23373
LeftUpLeg  -8.83554 -3.41489 1.99434
LeftLeg  8.80684 13.1617 1.16872
LeftFoot  3.52617 -0.0238653 0.956621
LeftToes  -18.3243 1.48347e-006 1.01831e-007
315
root  -11.5949 34.7521 -17.6866 -170.954 -1.24033 179.882
RightUpLeg  -6.66792 -14.6718 1.0525
RightLeg  3.59682 -2.42234 0.0046717
RightFoot  3.32716 0.0170948 0.0236565
RightToes  -21.0074 -0.0871456 -0.184872
Spine  -2.59324 0.114607 0.113171
Spine1  -5.24617 0.33201 0.921611
HEad  -61.9088 -0.735856 5.32653
LeftShoulder1  -1.94126e-019 -3.10601e-018 -2.51263e-017
LeftArm  -10.7808 23.7005 -81.4248
LeftForeArm  31.9223 -14.8945 -2.40511
LeftHand  -0.371521 -1.08971 6.79634
RightShoulder  -4.96962e-017 0 -2.36833e-017
RightArm  -12.3033 -23.4963 74.294
RightForeArm  37.1538 23.2005 2.99151
RightHand  -0.115636 -3.01354 -4.9969
LeftUpLeg  -8.73183 -3.27136 2.54185
LeftLeg  8.41863 13.2345 1.08562
LeftFoot  4.15634 -0.034451 1.13018
LeftToes  -18.8709 1.48347e-006 1.01831e-007
316
root  -11.3008 34.7613 -17.5733 -170.946 -1.1216 -179.844
RightUpLeg  -6.39381 -14.9255 1.85077
RightLeg  2.5729 -1.99633 0.0394706
RightFoot  3.75487 0.0164458 0.0338884
RightToes  -20.4352 -0.0856922 -0.180312
Spine  -2.54945 0.0732934 0.0102299
Spine1  -5.15883 0.261385 0.72962
HEad  -61.8852 -0.259252 6.22081
LeftShoulder1  -1.94126e-019 -3.10601e-018 -2.51263e-017
LeftArm  -11.2089 23.6821 -80.8189
LeftForeArm  32.1941 -14.5668 -2.36968
LeftHand  -0.374195 -1.04093 6.89225
RightShoulder  -4.96962e-017 0 -2.36833e-017
RightArm  -6.64958 -23.4345 71.3477
RightForeArm  32.8634 38.0864 6.70723
RightHand  -0.0684638 -4.21381 -4.85981
LeftUpLeg  -9.96673 -3.46408 3.28704
LeftLeg  10.5858 13.5067 1.61845
LeftFoot  3.66871 -0.0282246 1.04283
LeftToes  -19.4704 1.48347e-006 1.01831e-007
317
root  -10.9819 34.7527 -17.4264 -170.849 -0.990372 -179.348
RightUpLeg  -6.05161 -15.0951 2.957
RightLeg  1.10573 -1.67257 0.0757019
RightFoot  4.38639 0.0163883 0.0358155
RightToes  -19.8556 -0.084704 -0.175661
Spine  -2.551 -0.0393402 -0.0327312
Spine1  -5.1441 0.0135441 0.689435
HEad  -61.7783 0.242952 6.85473
LeftShoulder1  -1.94126e-019 -3.10601e-018 -2.51263e-017
LeftArm  -11.3295 23.8073 -80.2186
LeftForeArm  32.2676 -14.6117 -2.39909
LeftHand  -0.352769 -0.722121 6.81565
RightShoulder  -4.96962e-017 0 -2.36833e-017
RightArm  -1.31516 -21.8568 67.0462
RightForeArm  33.1781 54.8147 13.1431
RightHand  0.00417886 -5.99946 -5.86981
LeftUpLeg  -11.8278 -4.37362 4.28796
LeftLeg  13.803 14.5555 2.56681
LeftFoot  2.69157 -0.0166562 0.870554
LeftToes  -19.13 1.48347e-006 1.01831e-007
318
root  -10.6887 34.7205 -17.2481 -170.882 -0.786804 -178.747
RightUpLeg  -5.68101 -14.8631 4.07526
RightLeg  -0.215714 -1.59648 0.108832
RightFoot  4.91325 0.0172533 0.0244026
RightToes  -19.1994 -0.0840706 -0.170354
Spine  -2.53294 -0.192643 0.0081797
Spine1  -5.07126 -0.373556 0.850776
HEad  -61.6739 0.682479 7.05322
LeftShoulder1  -1.94126e-019 -3.10601e-018 -2.51263e-017
LeftArm  -11.5338 23.843 -79.8989
LeftForeArm  32.9343 -14.4139 -2.40446
LeftHand  -0.365398 -0.971635 6.80046
RightShoulder  -4.96962e-017 0 -2.36833e-017
RightArm  2.00215 -18.6039 61.6588
RightForeArm  46.3783 72.1915 31.0722
RightHand  0.0309633 -6.77913 -5.17556
LeftUpLeg  -14.0731 -5.69386 5.2669
LeftLeg  18.1759 16.2865 4.14393
LeftFoot  0.837578 -0.00184876 0.414528
LeftToes  -16.8769 1.48347e-006 1.01831e-007
319
root  -10.4484 34.6721 -17.0951 -171.108 -0.413681 -178.068
RightUpLeg  -5.51392 -14.6033 5.1065
RightLeg  -0.628273 -1.43217 0.107856
RightFoot  5.06743 0.0169033 0.0301987
RightToes  -18.9593 -0.0836814 -0.171307
Spine  -2.43284 -0.211861 0.110366
Spine1  -4.83775 -0.495598 1.14229
HEad  -61.7775 0.841792 6.9924
LeftShoulder1  -1.94126e-019 -3.10601e-018 -2.51263e-017
LeftArm  -11.8589 23.781 -80.0287
LeftForeArm  33.6408 -14.5248 -2.46512
LeftHand  -0.380755 -0.902245 7.15384
RightShoulder  -4.96962e-017 0 -2.36833e-017
RightArm  1.11503 -13.1394 56.2004
RightForeArm  112.278 80.0205 103.477
RightHand  -0.0025037 -6.06376 -4.46626
LeftUpLeg  -16.2936 -5.39061 5.50403
LeftLeg  23.7421 19.571 6.9705
LeftFoot  -1.06242 -0.00375598 -0.243554
LeftToes  -13.1259 1.48347e-006 1.01831e-007
320
root  -10.2945 34.6586 -16.9975 -171.512 0.425385 -177.803
RightUpLeg  -5.27871 -14.6443 5.47075
RightLeg  -0.629269 -0.473122 0.0355004
RightFoot  5.17422 0.0118067 0.103675
RightToes  -19.1776 -0.0834263 -0.174817
Spine  -2.28531 -0.0254683 0.0663091
Spine1  -4.50601 -0.226998 1.1411
HEad  -61.911 0.710763 7.10619
LeftShoulder1  -1.94126e-019 -3.10601e-018 -2.51263e-017
LeftArm  -12.3689 23.5556 -80.2995
LeftForeArm  34.4698 -14.2411 -2.45262
LeftHand  -0.38096 -0.765924 7.30448
RightShoulder  -4.96962e-017 0 -2.36833e-017
RightArm  -3.81736 -6.10895 51.2868
RightForeArm  155.259 69.5737 151.918
RightHand  0.00570051 -6.23728 -4.74663
LeftUpLeg  -17.8451 -3.35784 4.30452
LeftLeg  28.8765 18.1734 8.34339
LeftFoot  -4.1936 -0.0559027 -1.36522
LeftToes  -9.54224 1.48347e-006 1.01831e-007
321
root  -10.1936 34.6702 -16.945 -171.755 1.60765 -177.678
RightUpLeg  -5.4852 -14.7278 5.63521
RightLeg  0.0361923 0.837292 -0.053369
RightFoot  5.16751 0.00444525 0.209363
RightToes  -20.0787 -0.083195 -0.177454
Spine  -2.23957 0.351744 -0.0281856
Spine1  -4.3842 0.442346 0.955378
HEad  -61.8026 0.402773 7.36018
LeftShoulder1  -1.94126e-019 -3.10601e-018 -2.51263e-017
LeftArm  -13.0787 23.6813 -80.6644
LeftForeArm  35.1665 -14.4321 -2.50862
LeftHand  -0.399477 -0.893652 7.50983
RightShoulder  -4.96962e-017 0 -2.36833e-017
RightArm  -13.0032 2.4516 46.6255
RightForeArm  164.315 58.7181 163.071
RightHand  -0.0161133 -5.57988 -5.49593
LeftUpLeg  -18.3562 -0.827276 2.43529
LeftLeg  30.8745 14.3712 7.26253
LeftFoot  -5.86165 -0.0867836 -1.53341
LeftToes  -12.9396 1.48347e-006 1.01831e-007
322
root  -10.0956 34.6685 -16.9403 -171.596 2.78156 -177.605
RightUpLeg  -5.76753 -13.9214 5.7922
RightLeg  0.254992 1.27553 -0.0763392
RightFoot  5.15795 0.00182251 0.247203
RightToes  -20.2537 -0.0828772 -0.178422
Spine  -2.40937 0.841939 -0.142728
Spine1  -4.72101 1.43666 0.675781
HEad  -61.1319 0.148247 7.73012
LeftShoulder1  -1.94126e-019 -3.10601e-018 -2.51263e-017
LeftArm  -13.0933 24.5251 -80.9054
LeftForeArm  35.1267 -15.4298 -2.68593
LeftHand  -0.402831 -0.986727 7.46915
RightShoulder  -4.96962e-017 0 -2.36833e-017
RightArm  -26.0658 10.9621 41.5984
RightForeArm  167.667 51.0911 167.293
RightHand  -0.0696678 -4.55486 -7.03098
LeftUpLeg  -17.5968 1.71863 0.528388
LeftLeg  28.1465 11.3421 5.10907
LeftFoot  -5.32887 -0.054831 -1.01665
LeftToes  -18.7799 1.48347e-006 1.01831e-007
323
root  -10.071 34.6872 -16.9703 -171.222 3.33583 -177.937
RightUpLeg  -6.78709 -14.5844 5.59278
RightLeg  1.53025 2.48266 -0.0928503
RightFoot  4.59365 -0.00396633 0.330144
RightToes  -20.82 -0.0826206 -0.179169
Spine  -2.66077 1.20887 -0.368371
Spine1  -5.25226 2.2628 0.138593
HEad  -60.3646 -0.0273333 7.83208
LeftShoulder1  -1.94126e-019 -3.10601e-018 -2.51263e-017
LeftArm  -12.2166 25.4707 -80.984
LeftForeArm  34.516 -15.9404 -2.73344
LeftHand  -0.387198 -1.0533 7.115
RightShoulder  -4.96962e-017 0 -2.36833e-017
RightArm  -41.4641 18.6549 35.4773
RightForeArm  165.351 47.0791 168.737
RightHand  -0.0749025 -4.64311 -8.84557
LeftUpLeg  -15.506 1.97512 -1.36233
LeftLeg  21.0102 10.3969 3.21974
LeftFoot  -5.83776 -0.0567609 -0.951645
LeftToes  -6.72031 1.48347e-006 1.01831e-007
324
root  -10.0425 34.7079 -16.9996 -170.915 2.98116 -178.199
RightUpLeg  -7.04158 -14.3627 5.41712
RightLeg  1.54869 1.99823 -0.0740318
RightFoot  4.46372 -0.00150486 0.295081
RightToes  -21.1346 -0.0825288 -0.179631
Spine  -2.81565 1.40464 -0.503874
Spine1  -5.61086 2.7645 -0.222192
HEad  -60.352 -0.432307 8.00825
LeftShoulder1  -1.94126e-019 -3.10601e-018 -2.51263e-017
LeftArm  -10.9478 25.6305 -81.1567
LeftForeArm  34.1601 -14.9996 -2.52141
LeftHand  -0.371975 -1.37393 6.54129
RightShoulder  -4.96962e-017 0 -2.36833e-017
RightArm  -57.5553 23.9772 28.0655
RightForeArm  163.036 45.7548 169.076
RightHand  -0.125382 -3.77882 -7.95363
LeftUpLeg  -13.3914 -4.23337 -1.56573
LeftLeg  16.3518 15.9214 3.52667
LeftFoot  -3.52175 -0.0314494 -0.861407
LeftToes  -3.27569 1.48347e-006 1.01831e-007
